<?xml version="1.0" encoding="utf-8"?>
<!-- Generator: Adobe Illustrator 23.0.1, SVG Export Plug-In . SVG Version: 6.00 Build 0)  -->
<svg version="1.1" id="Layer_1" xmlns="http://www.w3.org/2000/svg" xmlns:xlink="http://www.w3.org/1999/xlink" x="0px" y="0px"
	 viewBox="0 0 1366 768" style="enable-background:new 0 0 1366 768;" xml:space="preserve">
<style type="text/css">
	.st0{fill:#3D58A6;}
</style>
<path class="st0" d="M725.43,402.87c-0.83-0.71-2.08-0.6-2.79,0.23l-13.69,16.07l-8.75-6.93c-0.85-0.68-2.1-0.54-2.78,0.31
	c-0.68,0.85-0.54,2.09,0.32,2.77l10.25,8.12c0.36,0.29,0.8,0.43,1.23,0.43c0.56,0,1.12-0.24,1.51-0.69l14.93-17.52
	C726.36,404.82,726.26,403.58,725.43,402.87z M711.56,436.06c-1.09,0-1.98,0.88-1.98,1.97c0,3.26-2.66,5.91-5.93,5.91H651.2
	c-3.27,0-5.93-2.65-5.93-5.91V330.2c0-3.26,2.66-5.91,5.93-5.91h52.45c3.27,0,5.93,2.65,5.93,5.91v60.25c0,1.09,0.89,1.97,1.98,1.97
	s1.98-0.88,1.98-1.97v-33.61c1.51-0.3,2.64-1.63,2.64-3.22v-8.61c0-1.59-1.13-2.91-2.64-3.22v-11.6c0-5.43-4.43-9.84-9.88-9.84
	H651.2c-5.45,0-9.88,4.41-9.88,9.84v107.83c0,5.43,4.43,9.84,9.88,9.84h52.45c5.02,0,9.17-3.74,9.8-8.57
	c0.05-0.18,0.08-0.37,0.08-0.56v-0.71C713.54,436.94,712.65,436.06,711.56,436.06z M687.31,330.39c1.09,0,1.98-0.88,1.98-1.97
	c0-1.09-0.89-1.97-1.98-1.97h-19.77c-1.09,0-1.98,0.88-1.98,1.97c0,1.09,0.89,1.97,1.98,1.97H687.31z M671.93,437.13
	c0,3.02,2.47,5.47,5.5,5.47s5.5-2.46,5.5-5.47s-2.47-5.47-5.5-5.47S671.93,434.11,671.93,437.13z M678.97,437.13
	c0,0.85-0.69,1.54-1.54,1.54s-1.54-0.69-1.54-1.54c0-0.85,0.69-1.53,1.54-1.53S678.97,436.28,678.97,437.13z M701.05,392.3
	c1.2,0,2.18-0.97,2.18-2.17v-44.07c0-3.67-3.54-6.88-7.57-6.88h-35.74c-4.17,0-7.57,3.38-7.57,7.54v73.48
	c0,4.16,3.39,7.54,7.57,7.54h31.19c1.2,0,2.18-0.97,2.18-2.17s-0.98-2.17-2.18-2.17h-31.19c-1.77,0-3.21-1.43-3.21-3.19v-73.47
	c0-1.76,1.44-3.19,3.21-3.19h35.74c1.86,0,3.21,1.52,3.21,2.54v44.07C698.87,391.33,699.84,392.3,701.05,392.3z"/>
</svg>
