<?xml version="1.0" encoding="utf-8"?>
<!-- Generator: Adobe Illustrator 23.0.1, SVG Export Plug-In . SVG Version: 6.00 Build 0)  -->
<svg version="1.1" id="Layer_1" xmlns="http://www.w3.org/2000/svg" xmlns:xlink="http://www.w3.org/1999/xlink" x="0px" y="0px"
	 viewBox="0 0 1366 768" style="enable-background:new 0 0 1366 768;" xml:space="preserve">
<style type="text/css">
	.st0{fill:#3D58A6;}
</style>
<g>
	<path class="st0" d="M670.22,447.82c0.73,0.92,1.84,1.46,3.02,1.46h48.18c1.57,0,2.99-0.95,3.58-2.4c0.07-0.18,1.01-2.63,1.36-3.61
		c1-2.79,2.01-5.83,2.94-9.02c1.5-5.1,2.68-10.09,3.44-14.81c1.63-10.2,1.18-18.36-2.23-23.96c-3.55-5.82-9.88-10.01-18.14-12.97
		c-4.29-1.54-8.85-2.66-13.41-3.42c-1.59-0.27-2.58-0.38-2.58-0.38V343.7c0-6.35-5.19-11.5-11.56-11.5h-1.93
		c-6.38,0-11.56,5.16-11.56,11.51l0.01,60.64l-12.84-11.18c-8.24-7.18-19.71-5.27-25.14,4.18c-0.85,1.48-0.72,3.17,0.26,4.4
		L670.22,447.82z M642.65,398.14c3.15-2.4,7.29-2.21,10.75,0.8l19.22,16.75c2.49,2.17,6.39,0.41,6.39-2.89v-69.09
		c0-2.11,1.73-3.84,3.85-3.84h1.93c2.12,0,3.85,1.72,3.85,3.82v38.4c0,2.01,1.56,3.68,3.57,3.83c0.24,0.02,0.73,0.06,1.44,0.14
		c1.2,0.14,2.54,0.32,3.99,0.57c4.13,0.69,8.26,1.7,12.08,3.07c6.76,2.43,11.71,5.7,14.17,9.73c2.21,3.63,2.58,10.22,1.21,18.77
		c-0.7,4.37-1.81,9.05-3.22,13.86c-0.89,3.04-1.85,5.93-2.8,8.59c-0.33,0.93-0.31,0.93-0.31,0.93h-43.62l-33.71-42.33
		C641.46,399.27,642.01,398.64,642.65,398.14z"/>
	<path class="st0" d="M709.34,339.43c-2.44-11.79-12.92-20.66-25.48-20.66c-14.37,0-26.02,11.6-26.02,25.91
		c0,9.6,5.29,18.27,13.6,22.77c1.87,1.01,4.21,0.33,5.23-1.54c1.02-1.86,0.33-4.19-1.54-5.21c-5.85-3.17-9.57-9.27-9.57-16.03
		c0-10.07,8.2-18.23,18.31-18.23s18.31,8.16,18.31,18.23c0,6.68-3.64,12.72-9.39,15.93c-1.86,1.03-2.52,3.37-1.48,5.22
		c1.04,1.85,3.39,2.51,5.25,1.48c7.46-4.16,12.43-11.69,13.22-20.2h11.32v3.85c0,1.04,0.7,1.41,1.57,0.79l10.34-7.36
		c0.89-0.63,0.87-1.62,0-2.24l-10.34-7.36c-0.89-0.63-1.57-0.26-1.57,0.79v3.85H709.34L709.34,339.43z"/>
</g>
</svg>
